<svg xmlns="http://www.w3.org/2000/svg" width="920.041" height="326.902" viewBox="0 0 920.041 326.902">
  <g id="Group_1" data-name="Group 1" transform="translate(38.653 -1876.001)" fill="#ffffff">
    <path id="Path_7" data-name="Path 7" d="M949.04,577.073c0-29.63-21.664-50.973-50.338-50.973s-50.336,21.343-50.336,50.973,21.664,50.974,50.336,50.974S949.04,606.7,949.04,577.073m34.407-143.365V656.719H961.2a12.156,12.156,0,0,1-12.155-12.156V633.78c-12.108,16.885-30.9,27.079-55.754,27.079-43.327,0-79.327-36.638-79.327-83.786,0-47.471,36-83.789,79.327-83.789,24.852,0,43.646,10.2,55.754,26.762V433.708Z" transform="translate(-686 1498)"/>
    <path id="Path_8" data-name="Path 8" d="M1072.2,660.833c-40.12,0-72.758-30.193-72.758-67.3v-96.1h34.057v96.1c0,18.332,17.361,33.248,38.7,33.248s38.7-14.916,38.7-33.248v-96.1h34.057v96.1c0,37.112-32.638,67.3-72.758,67.3" transform="translate(-686 1498)"/>
    <path id="Path_9" data-name="Path 9" d="M1296.026,577.073c0-29.63-21.664-50.974-50.339-50.974s-50.335,21.344-50.335,50.974,21.664,50.974,50.335,50.974,50.339-21.346,50.339-50.974m34.407,0c0,47.148-36,83.786-79.327,83.786-24.852,0-43.649-10.2-55.754-27.079v10.783a12.155,12.155,0,0,1-12.155,12.155h-22.252V433.708h34.407v86.337c12.1-16.566,30.9-26.761,55.754-26.761,43.327,0,79.327,36.318,79.327,83.789" transform="translate(-686 1498)"/>
    <path id="Path_10" data-name="Path 10" d="M1479.182,577.073c0-29.631-21.664-50.974-50.338-50.974s-50.335,21.343-50.335,50.974,21.663,50.974,50.335,50.974,50.338-21.346,50.338-50.974m34.407-79.648V656.718h-34.407V633.78c-12.108,16.884-30.905,27.079-55.754,27.079-43.327,0-79.327-36.638-79.327-83.786,0-47.471,36-83.789,79.327-83.789,24.849,0,43.646,10.2,55.754,26.761V509.58a12.156,12.156,0,0,1,12.156-12.155Z" transform="translate(-686 1498)"/>
    <rect id="Rectangle_4" data-name="Rectangle 4" width="2.912" height="17.726" transform="translate(474.945 2179.671)"/>
    <path id="Path_11" data-name="Path 11" d="M1181.454,681.672V699.4h-2.279l-8.356-12.028V699.4h-2.912V681.672h2.278l8.357,12.028V681.672Z" transform="translate(-686 1498)"/>
    <path id="Path_12" data-name="Path 12" d="M1184.613,690.534a9.021,9.021,0,0,1,9.267-9.192,8.733,8.733,0,0,1,7.623,4.229l-2.532,1.468a5.671,5.671,0,0,0-5.091-2.861,6.356,6.356,0,0,0,0,12.712,5.642,5.642,0,0,0,5.091-2.862l2.532,1.444a8.692,8.692,0,0,1-7.623,4.254,9.021,9.021,0,0,1-9.267-9.192" transform="translate(-686 1498)"/>
    <path id="Path_13" data-name="Path 13" d="M1218.867,690.534a6.28,6.28,0,1,0-6.28,6.356,6.187,6.187,0,0,0,6.28-6.356m-15.472,0a9.192,9.192,0,1,1,9.192,9.192,9.128,9.128,0,0,1-9.192-9.192" transform="translate(-686 1498)"/>
    <path id="Path_14" data-name="Path 14" d="M1227.849,690.332h4.178a2.969,2.969,0,0,0,0-5.926h-4.178Zm3.444,2.608h-3.444V699.4h-2.912V681.672h7.09a5.674,5.674,0,0,1,5.7,5.7,5.591,5.591,0,0,1-3.52,5.141l4.026,6.887h-3.19Z" transform="translate(-686 1498)"/>
    <path id="Path_15" data-name="Path 15" d="M1250.455,687.5a2.921,2.921,0,0,0-2.963-3.089h-3.621v6.178h3.621a2.935,2.935,0,0,0,2.963-3.089m2.912,0a5.757,5.757,0,0,1-5.875,5.824h-3.621V699.4h-2.912V681.672h6.533a5.742,5.742,0,0,1,5.875,5.824" transform="translate(-686 1498)"/>
    <path id="Path_16" data-name="Path 16" d="M1270.835,690.534a6.28,6.28,0,1,0-6.28,6.356,6.187,6.187,0,0,0,6.28-6.356m-15.472,0a9.192,9.192,0,1,1,9.192,9.192,9.128,9.128,0,0,1-9.192-9.192" transform="translate(-686 1498)"/>
    <path id="Path_17" data-name="Path 17" d="M1279.815,690.332h4.178a2.969,2.969,0,0,0,0-5.926h-4.178Zm3.444,2.608h-3.444V699.4H1276.9V681.672h7.09a5.674,5.674,0,0,1,5.7,5.7,5.591,5.591,0,0,1-3.52,5.141l4.026,6.887h-3.19Z" transform="translate(-686 1498)"/>
    <path id="Path_18" data-name="Path 18" d="M1302.272,693.092l-2.811-8-2.811,8Zm.962,2.735h-7.546l-1.241,3.57h-3.165l6.432-17.725h3.494l6.407,17.725h-3.14Z" transform="translate(-686 1498)"/>
    <path id="Path_19" data-name="Path 19" d="M1322.827,694.029l2.532,1.443a8.512,8.512,0,0,1-6.458,4.179v.911a2.126,2.126,0,0,1,1.976,2c0,1.418-1.19,2.557-5.445,2.3v-2c2.077.177,3.065-.1,3.065-.633,0-.507-.709-.709-1.849-.76v-1.8a9.195,9.195,0,0,1,1.089-18.333,8.733,8.733,0,0,1,7.622,4.228l-2.532,1.469a5.67,5.67,0,0,0-5.09-2.861,6.356,6.356,0,1,0,0,12.712,5.641,5.641,0,0,0,5.09-2.862" transform="translate(-686 1498)"/>
    <path id="Path_20" data-name="Path 20" d="M1337.482,693.092l-2.811-8-2.811,8Zm-4.609-13.117h-2.254c0-3.722,2.254-4.153,4.28-2.785,1.089.785,1.57.911,1.57-.583h2.254c0,3.723-2.229,4.153-4.255,2.786-1.114-.785-1.595-.912-1.595.582m5.571,15.852H1330.9l-1.241,3.57h-3.165l6.432-17.725h3.494l6.407,17.725h-3.14Z" transform="translate(-686 1498)"/>
    <path id="Path_21" data-name="Path 21" d="M1359.153,690.534a6.28,6.28,0,1,0-6.28,6.356,6.187,6.187,0,0,0,6.28-6.356m-15.472,0a9.192,9.192,0,1,1,9.192,9.192,9.128,9.128,0,0,1-9.192-9.192" transform="translate(-686 1498)"/>
    <path id="Path_22" data-name="Path 22" d="M1382.818,696.612V699.4h-10.762V681.672h10.635v2.785h-7.723v4.609h7.09v2.76h-7.09v4.786Z" transform="translate(-686 1498)"/>
    <path id="Path_23" data-name="Path 23" d="M1391.927,690.534a9.022,9.022,0,0,1,9.268-9.192,8.732,8.732,0,0,1,7.622,4.229l-2.532,1.468a5.671,5.671,0,0,0-5.09-2.861,6.356,6.356,0,0,0,0,12.712,5.642,5.642,0,0,0,5.09-2.862l2.532,1.444a8.693,8.693,0,0,1-7.622,4.254,9.022,9.022,0,0,1-9.268-9.192" transform="translate(-686 1498)"/>
    <path id="Path_24" data-name="Path 24" d="M1426.181,690.534a6.28,6.28,0,1,0-6.28,6.356,6.187,6.187,0,0,0,6.28-6.356m-15.472,0a9.192,9.192,0,1,1,9.192,9.192,9.128,9.128,0,0,1-9.192-9.192" transform="translate(-686 1498)"/>
    <path id="Path_25" data-name="Path 25" d="M1445.8,681.672V699.4h-2.279l-8.356-12.028V699.4h-2.912V681.672h2.279l8.356,12.028V681.672Z" transform="translate(-686 1498)"/>
    <path id="Path_26" data-name="Path 26" d="M1448.654,695.371l2.507-1.469a4.257,4.257,0,0,0,4.406,2.988c2.3,0,3.292-1.038,3.292-2.329,0-1.57-1.393-2.1-4.027-2.912-2.76-.836-5.444-1.849-5.444-5.192,0-3.266,2.71-5.115,5.7-5.115a6.579,6.579,0,0,1,6.178,3.9l-2.456,1.418a3.819,3.819,0,0,0-3.722-2.482c-1.7,0-2.786.861-2.786,2.2,0,1.367.988,1.949,3.571,2.76,2.937.937,5.9,1.848,5.9,5.368,0,3.241-2.583,5.216-6.28,5.216-3.495,0-5.9-1.721-6.837-4.355" transform="translate(-686 1498)"/>
    <path id="Path_27" data-name="Path 27" d="M1475.668,684.457h-4.988V699.4h-2.913v-14.94h-5.013v-2.785h12.914Z" transform="translate(-686 1498)"/>
    <path id="Path_28" data-name="Path 28" d="M1481.232,690.332h4.178a2.969,2.969,0,0,0,0-5.926h-4.178Zm3.444,2.608h-3.444V699.4h-2.912V681.672h7.09a5.674,5.674,0,0,1,5.7,5.7,5.592,5.592,0,0,1-3.52,5.141l4.026,6.887h-3.19Z" transform="translate(-686 1498)"/>
    <path id="Path_29" data-name="Path 29" d="M1494.015,693.522V681.671h2.912v11.674c0,2.076,1.19,3.546,3.8,3.546s3.8-1.47,3.8-3.546V681.671h2.912v11.851c0,3.824-2.836,6.205-6.711,6.205-3.9,0-6.71-2.381-6.71-6.205" transform="translate(-686 1498)"/>
    <path id="Path_30" data-name="Path 30" d="M1524.75,694.029l2.531,1.443a8.512,8.512,0,0,1-6.457,4.179v.911a2.126,2.126,0,0,1,1.976,2c0,1.418-1.191,2.557-5.445,2.3v-2c2.077.177,3.065-.1,3.065-.633,0-.507-.709-.709-1.849-.76v-1.8a9.195,9.195,0,0,1,1.089-18.333,8.732,8.732,0,0,1,7.621,4.228l-2.531,1.469a5.67,5.67,0,0,0-5.09-2.861,6.356,6.356,0,1,0,0,12.712,5.642,5.642,0,0,0,5.09-2.862" transform="translate(-686 1498)"/>
    <path id="Path_31" data-name="Path 31" d="M1539.4,693.092l-2.81-8-2.812,8Zm-4.609-13.117h-2.253c0-3.722,2.253-4.153,4.279-2.785,1.089.785,1.57.911,1.57-.583h2.255c0,3.723-2.229,4.153-4.255,2.786-1.115-.785-1.6-.912-1.6.582m5.571,15.852h-7.546l-1.241,3.57h-3.165l6.432-17.725h3.494l6.407,17.725h-3.14Z" transform="translate(-686 1498)"/>
    <path id="Path_32" data-name="Path 32" d="M1561.076,690.534a6.28,6.28,0,1,0-6.28,6.356,6.187,6.187,0,0,0,6.28-6.356m-15.472,0a9.192,9.192,0,1,1,9.192,9.192,9.128,9.128,0,0,1-9.192-9.192" transform="translate(-686 1498)"/>
    <rect id="Rectangle_10" data-name="Rectangle 10" width="34.407" height="159.293" transform="translate(843.58 1995.425)"/>
    <path id="Path_33" data-name="Path 33" d="M1526.181,454.311a20.6,20.6,0,1,1,20.6,20.6,20.646,20.646,0,0,1-20.6-20.6" transform="translate(-686 1498)"/>
    <path id="Path_34" data-name="Path 34" d="M748.711,477.773,723.373,464.7l-25.342,13.077-25.342,14.632,25.342,14.629,25.342,14.632,25.338-14.632h0l25.339-14.629Z" transform="translate(-686 1498)" fill="#b10100"/>
    <path id="Path_35" data-name="Path 35" d="M723.373,404.623V464.7l-25.342,13.077-25.342,14.632V433.884l25.342-14.632Z" transform="translate(-686 1498)" fill="#d40001"/>
    <path id="Path_36" data-name="Path 36" d="M723.373,521.666v29.261L698.031,536.3l-42.156-24.34a17.058,17.058,0,0,1-8.528-14.772V419.251l25.342,14.632V492.4l25.342,14.629Z" transform="translate(-686 1498)" fill="#fc1600"/>
    <path id="Path_37" data-name="Path 37" d="M799.4,419.252v77.935a17.058,17.058,0,0,1-8.528,14.772l-16.814,9.708L748.714,536.3l-25.342,14.629V521.667l25.342-14.632,25.339-14.629V433.884Z" transform="translate(-686 1498)" fill="#d40001"/>
    <path id="Path_38" data-name="Path 38" d="M799.4,419.252l-25.342,14.632-25.339-14.632-25.342-14.629L698.03,419.252l-25.341,14.632-25.342-14.632,25.342-14.629,25.341-14.632,16.814-9.706a17.057,17.057,0,0,1,17.056,0l16.811,9.7,25.342,14.632Z" transform="translate(-686 1498)" fill="#b10100"/>
    <path id="Path_39" data-name="Path 39" d="M748.715,419.252l-25.342-14.629V464.7l25.339,13.077,25.342,14.632V433.884Z" transform="translate(-686 1498)" fill="#fc1600"/>
  </g>
</svg>
